<?xml version="1.0" encoding="UTF-8"?>
<svg width="150px" height="150px" viewBox="0 0 150 150" version="1.1" xmlns="http://www.w3.org/2000/svg" xmlns:xlink="http://www.w3.org/1999/xlink">
    <!-- Generator: Sketch 46.2 (44496) - http://www.bohemiancoding.com/sketch -->
    <title>Artboard</title>
    <desc>Created with Sketch.</desc>
    <defs></defs>
    <g id="Page-1" stroke="none" stroke-width="1" fill="none" fill-rule="evenodd">
        <g id="Artboard" stroke="#2427FF" stroke-width="7">
            <path d="M75.2689321,116.999297 C75.1793485,116.999766 75.0897043,117 75,117 C49.5949015,117 29,98.1959595 29,75 C29,51.8040405 49.5949015,33 75,33 C100.405098,33 121,51.8040405 121,75 C121,97.1085262 102.290826,115.22727 78.5396538,116.877505 C77.5380847,116.9586 76.5242548,117 75.5,117 C75.4229181,117 75.3458952,116.999766 75.2689321,116.999297 Z M75.2689321,116.999297 C76.3687452,116.993549 77.4594143,116.95256 78.5396538,116.877505 C96.1698344,115.450022 110,101.723079 110,85 C110,67.326888 94.5538239,53 75.5,53 C56.4461761,53 41,67.326888 41,85 C41,102.601616 56.3214544,116.884027 75.2689321,116.999297 Z" id="Combined-Shape"></path>
        </g>
    </g>
</svg>